<svg xmlns="http://www.w3.org/2000/svg" xmlns:xlink="http://www.w3.org/1999/xlink" width="100" zoomAndPan="magnify" viewBox="0 0 75 37.5" height="50" preserveAspectRatio="xMidYMid meet" version="1.0"><defs><g/><clipPath id="2b4a01b52c"><path d="M 0.492188 10.492188 L 21 10.492188 L 21 31.957031 L 0.492188 31.957031 Z M 0.492188 10.492188 " clip-rule="nonzero"/></clipPath></defs><path fill="#ffffff" d="M 18.976562 20.601562 C 18.976562 21.179688 18.921875 21.757812 18.8125 22.324219 C 18.699219 22.894531 18.535156 23.449219 18.320312 23.984375 C 18.101562 24.519531 17.835938 25.03125 17.519531 25.511719 C 17.203125 25.996094 16.847656 26.441406 16.445312 26.851562 C 16.042969 27.265625 15.605469 27.628906 15.132812 27.953125 C 14.660156 28.277344 14.164062 28.546875 13.636719 28.769531 C 13.113281 28.992188 12.570312 29.160156 12.015625 29.273438 C 11.457031 29.386719 10.894531 29.445312 10.328125 29.445312 C 9.757812 29.445312 9.195312 29.386719 8.640625 29.273438 C 8.082031 29.160156 7.542969 28.992188 7.015625 28.769531 C 6.492188 28.546875 5.992188 28.277344 5.519531 27.953125 C 5.046875 27.628906 4.613281 27.265625 4.210938 26.851562 C 3.808594 26.441406 3.449219 25.996094 3.132812 25.511719 C 2.816406 25.03125 2.550781 24.519531 2.335938 23.984375 C 2.117188 23.449219 1.953125 22.894531 1.84375 22.324219 C 1.730469 21.757812 1.675781 21.179688 1.675781 20.601562 C 1.675781 20.019531 1.730469 19.445312 1.84375 18.875 C 1.953125 18.304688 2.117188 17.753906 2.335938 17.214844 C 2.550781 16.679688 2.816406 16.171875 3.132812 15.6875 C 3.449219 15.207031 3.808594 14.757812 4.210938 14.347656 C 4.613281 13.9375 5.046875 13.570312 5.519531 13.25 C 5.992188 12.925781 6.492188 12.652344 7.015625 12.429688 C 7.542969 12.210938 8.082031 12.042969 8.640625 11.929688 C 9.195312 11.816406 9.757812 11.757812 10.328125 11.757812 C 10.894531 11.757812 11.457031 11.816406 12.015625 11.929688 C 12.570312 12.042969 13.113281 12.210938 13.636719 12.429688 C 14.164062 12.652344 14.660156 12.925781 15.132812 13.25 C 15.605469 13.570312 16.042969 13.9375 16.445312 14.347656 C 16.847656 14.757812 17.203125 15.207031 17.519531 15.6875 C 17.835938 16.171875 18.101562 16.679688 18.320312 17.214844 C 18.535156 17.753906 18.699219 18.304688 18.8125 18.875 C 18.921875 19.445312 18.976562 20.019531 18.976562 20.601562 Z M 18.976562 20.601562 " fill-opacity="1" fill-rule="nonzero"/><g clip-path="url(#2b4a01b52c)"><path fill="#38a37f" d="M 17.921875 14.160156 C 17.675781 13.871094 17.410156 13.597656 17.132812 13.339844 C 16.855469 13.082031 16.566406 12.839844 16.261719 12.617188 C 15.957031 12.390625 15.640625 12.183594 15.3125 11.996094 C 14.984375 11.808594 14.648438 11.640625 14.300781 11.492188 C 13.957031 11.34375 13.601562 11.214844 13.242188 11.105469 C 12.882812 11 12.515625 10.910156 12.144531 10.847656 C 11.777344 10.78125 11.402344 10.734375 11.027344 10.714844 C 10.652344 10.691406 10.277344 10.691406 9.902344 10.710938 C 9.527344 10.730469 9.15625 10.773438 8.785156 10.835938 C 8.414062 10.902344 8.050781 10.988281 7.6875 11.09375 C 7.328125 11.199219 6.976562 11.324219 6.628906 11.472656 C 6.28125 11.621094 5.945312 11.785156 5.613281 11.972656 C 5.285156 12.160156 4.96875 12.363281 4.664062 12.585938 C 4.359375 12.808594 4.066406 13.050781 3.785156 13.304688 C 3.507812 13.5625 3.242188 13.835938 2.996094 14.121094 C 2.746094 14.410156 2.511719 14.710938 2.296875 15.023438 C 2.074219 15.351562 1.867188 15.691406 1.679688 16.042969 C 0.972656 17.386719 0.582031 18.824219 0.507812 20.347656 C 0.5 20.519531 0.496094 20.695312 0.496094 20.867188 C 0.496094 21.277344 0.519531 21.683594 0.566406 22.089844 C 0.617188 22.5 0.6875 22.902344 0.785156 23.296875 C 0.878906 23.695312 1 24.085938 1.140625 24.46875 C 1.28125 24.851562 1.445312 25.226562 1.632812 25.589844 C 1.816406 25.953125 2.023438 26.300781 2.253906 26.640625 C 2.480469 26.976562 2.726562 27.300781 2.992188 27.605469 C 3.257812 27.914062 3.539062 28.203125 3.839844 28.476562 C 4.140625 28.746094 4.453125 29 4.785156 29.234375 C 5.113281 29.464844 5.457031 29.679688 5.808594 29.871094 C 6.164062 30.058594 6.527344 30.230469 6.902344 30.375 C 7.277344 30.519531 7.660156 30.644531 8.050781 30.742188 C 8.4375 30.839844 8.832031 30.914062 9.230469 30.964844 C 9.628906 31.015625 10.027344 31.039062 10.425781 31.042969 C 10.828125 31.042969 11.226562 31.019531 11.625 30.96875 C 12.023438 30.921875 12.417969 30.847656 12.808594 30.75 C 13.195312 30.65625 13.578125 30.535156 13.953125 30.390625 C 14.328125 30.246094 14.695312 30.078125 15.050781 29.886719 C 15.40625 29.699219 15.75 29.488281 16.078125 29.257812 C 16.410156 29.023438 16.726562 28.773438 17.027344 28.503906 C 17.328125 28.230469 17.609375 27.945312 17.878906 27.636719 C 18.144531 27.332031 18.390625 27.011719 18.621094 26.675781 C 18.847656 26.335938 19.058594 25.988281 19.246094 25.625 C 19.433594 25.265625 19.597656 24.890625 19.742188 24.507812 C 19.882812 24.125 20.003906 23.738281 20.101562 23.339844 C 20.199219 22.941406 20.273438 22.539062 20.324219 22.132812 C 20.371094 21.726562 20.398438 21.316406 20.398438 20.910156 C 20.402344 20.5 20.378906 20.089844 20.332031 19.683594 C 20.285156 19.277344 20.214844 18.875 20.121094 18.476562 C 20.027344 18.078125 19.910156 17.6875 19.769531 17.304688 C 19.628906 16.917969 19.464844 16.546875 19.28125 16.183594 C 19.097656 15.816406 18.890625 15.46875 18.664062 15.128906 C 18.4375 14.789062 18.191406 14.46875 17.929688 14.160156 Z M 7.125 22.269531 C 7.964844 22.875 8.75 23.234375 9.566406 23.371094 L 9.566406 21.757812 C 7.453125 21.261719 6.375 20.523438 6.375 18.863281 L 6.375 18.835938 C 6.375 17.253906 7.503906 16.152344 9.511719 16.003906 L 9.511719 15.242188 L 10.878906 15.242188 L 10.878906 16.046875 C 11.886719 16.152344 12.808594 16.503906 13.644531 17.089844 L 12.570312 18.886719 C 12.03125 18.511719 11.445312 18.246094 10.8125 18.089844 L 10.8125 19.644531 C 12.890625 20.140625 13.945312 20.90625 13.945312 22.570312 L 13.945312 22.597656 C 13.945312 24.234375 12.714844 25.238281 10.851562 25.414062 L 10.851562 26.726562 L 9.488281 26.726562 L 9.488281 25.378906 C 8.191406 25.25 7.011719 24.808594 5.945312 24.046875 Z M 7.125 22.269531 " fill-opacity="1" fill-rule="nonzero"/></g><path fill="#38a37f" d="M 11.675781 22.765625 L 11.675781 22.738281 C 11.675781 22.375 11.480469 22.171875 10.796875 21.972656 L 10.796875 23.449219 C 11.402344 23.382812 11.675781 23.152344 11.675781 22.765625 Z M 11.675781 22.765625 " fill-opacity="1" fill-rule="nonzero"/><path fill="#38a37f" d="M 9.578125 17.960938 C 8.933594 18.015625 8.683594 18.285156 8.683594 18.632812 L 8.683594 18.660156 C 8.683594 19.007812 8.871094 19.210938 9.578125 19.410156 Z M 9.578125 17.960938 " fill-opacity="1" fill-rule="nonzero"/><g fill="#ffffff" fill-opacity="1"><g transform="translate(22.768065, 24.487764)"><g><path d="M 4.421875 0 L 4.125 -0.78125 L 4.09375 -0.78125 C 3.820312 -0.445312 3.546875 -0.210938 3.265625 -0.078125 C 2.992188 0.046875 2.640625 0.109375 2.203125 0.109375 C 1.648438 0.109375 1.21875 -0.046875 0.90625 -0.359375 C 0.59375 -0.671875 0.4375 -1.117188 0.4375 -1.703125 C 0.4375 -2.304688 0.644531 -2.75 1.0625 -3.03125 C 1.488281 -3.320312 2.128906 -3.484375 2.984375 -3.515625 L 3.96875 -3.546875 L 3.96875 -3.796875 C 3.96875 -4.367188 3.671875 -4.65625 3.078125 -4.65625 C 2.628906 -4.65625 2.097656 -4.519531 1.484375 -4.25 L 0.96875 -5.296875 C 1.625 -5.640625 2.347656 -5.8125 3.140625 -5.8125 C 3.910156 -5.8125 4.5 -5.644531 4.90625 -5.3125 C 5.3125 -4.976562 5.515625 -4.472656 5.515625 -3.796875 L 5.515625 0 Z M 3.96875 -2.640625 L 3.375 -2.609375 C 2.914062 -2.597656 2.578125 -2.515625 2.359375 -2.359375 C 2.140625 -2.210938 2.03125 -1.988281 2.03125 -1.6875 C 2.03125 -1.25 2.28125 -1.03125 2.78125 -1.03125 C 3.144531 -1.03125 3.429688 -1.132812 3.640625 -1.34375 C 3.859375 -1.550781 3.96875 -1.828125 3.96875 -2.171875 Z M 3.96875 -2.640625 "/></g></g></g><g fill="#ffffff" fill-opacity="1"><g transform="translate(29.061589, 24.487764)"><g><path d="M 5.765625 -5.6875 L 5.765625 -4.90625 L 4.875 -4.671875 C 5.039062 -4.421875 5.125 -4.132812 5.125 -3.8125 C 5.125 -3.207031 4.910156 -2.734375 4.484375 -2.390625 C 4.054688 -2.046875 3.460938 -1.875 2.703125 -1.875 L 2.421875 -1.890625 L 2.203125 -1.921875 C 2.035156 -1.796875 1.953125 -1.660156 1.953125 -1.515625 C 1.953125 -1.285156 2.238281 -1.171875 2.8125 -1.171875 L 3.78125 -1.171875 C 4.40625 -1.171875 4.878906 -1.035156 5.203125 -0.765625 C 5.535156 -0.503906 5.703125 -0.113281 5.703125 0.40625 C 5.703125 1.070312 5.421875 1.585938 4.859375 1.953125 C 4.304688 2.316406 3.515625 2.5 2.484375 2.5 C 1.679688 2.5 1.070312 2.359375 0.65625 2.078125 C 0.238281 1.804688 0.03125 1.421875 0.03125 0.921875 C 0.03125 0.578125 0.132812 0.289062 0.34375 0.0625 C 0.5625 -0.164062 0.878906 -0.328125 1.296875 -0.421875 C 1.128906 -0.492188 0.988281 -0.609375 0.875 -0.765625 C 0.757812 -0.921875 0.703125 -1.082031 0.703125 -1.25 C 0.703125 -1.46875 0.765625 -1.648438 0.890625 -1.796875 C 1.015625 -1.941406 1.195312 -2.082031 1.4375 -2.21875 C 1.132812 -2.34375 0.894531 -2.546875 0.71875 -2.828125 C 0.539062 -3.117188 0.453125 -3.457031 0.453125 -3.84375 C 0.453125 -4.46875 0.65625 -4.945312 1.0625 -5.28125 C 1.46875 -5.625 2.046875 -5.796875 2.796875 -5.796875 C 2.953125 -5.796875 3.140625 -5.78125 3.359375 -5.75 C 3.578125 -5.71875 3.71875 -5.695312 3.78125 -5.6875 Z M 1.375 0.796875 C 1.375 1.015625 1.472656 1.179688 1.671875 1.296875 C 1.878906 1.421875 2.171875 1.484375 2.546875 1.484375 C 3.097656 1.484375 3.53125 1.40625 3.84375 1.25 C 4.164062 1.101562 4.328125 0.898438 4.328125 0.640625 C 4.328125 0.421875 4.234375 0.269531 4.046875 0.1875 C 3.859375 0.113281 3.570312 0.078125 3.1875 0.078125 L 2.375 0.078125 C 2.09375 0.078125 1.851562 0.140625 1.65625 0.265625 C 1.46875 0.398438 1.375 0.578125 1.375 0.796875 Z M 1.9375 -3.828125 C 1.9375 -3.515625 2.003906 -3.269531 2.140625 -3.09375 C 2.285156 -2.914062 2.503906 -2.828125 2.796875 -2.828125 C 3.085938 -2.828125 3.300781 -2.914062 3.4375 -3.09375 C 3.570312 -3.269531 3.640625 -3.515625 3.640625 -3.828125 C 3.640625 -4.515625 3.359375 -4.859375 2.796875 -4.859375 C 2.222656 -4.859375 1.9375 -4.515625 1.9375 -3.828125 Z M 1.9375 -3.828125 "/></g></g></g><g fill="#ffffff" fill-opacity="1"><g transform="translate(34.948094, 24.487764)"><g/></g></g><g fill="#ffffff" fill-opacity="1"><g transform="translate(37.654765, 24.487764)"><g><path d="M 5.90625 0 L 4.359375 0 L 4.359375 -3.328125 C 4.359375 -3.734375 4.285156 -4.035156 4.140625 -4.234375 C 4.003906 -4.441406 3.789062 -4.546875 3.5 -4.546875 C 3.101562 -4.546875 2.8125 -4.398438 2.625 -4.109375 C 2.445312 -3.816406 2.359375 -3.335938 2.359375 -2.671875 L 2.359375 0 L 0.8125 0 L 0.8125 -5.6875 L 2 -5.6875 L 2.203125 -4.96875 L 2.296875 -4.96875 C 2.453125 -5.226562 2.671875 -5.429688 2.953125 -5.578125 C 3.242188 -5.722656 3.578125 -5.796875 3.953125 -5.796875 C 4.796875 -5.796875 5.367188 -5.519531 5.671875 -4.96875 L 5.8125 -4.96875 C 5.96875 -5.226562 6.191406 -5.429688 6.484375 -5.578125 C 6.785156 -5.722656 7.125 -5.796875 7.5 -5.796875 C 8.144531 -5.796875 8.628906 -5.628906 8.953125 -5.296875 C 9.285156 -4.960938 9.453125 -4.429688 9.453125 -3.703125 L 9.453125 0 L 7.890625 0 L 7.890625 -3.328125 C 7.890625 -3.734375 7.820312 -4.035156 7.6875 -4.234375 C 7.550781 -4.441406 7.335938 -4.546875 7.046875 -4.546875 C 6.660156 -4.546875 6.375 -4.410156 6.1875 -4.140625 C 6 -3.867188 5.90625 -3.441406 5.90625 -2.859375 Z M 5.90625 0 "/></g></g></g><g fill="#ffffff" fill-opacity="1"><g transform="translate(47.886189, 24.487764)"><g><path d="M 2.046875 -2.859375 C 2.046875 -2.296875 2.140625 -1.867188 2.328125 -1.578125 C 2.515625 -1.285156 2.816406 -1.140625 3.234375 -1.140625 C 3.648438 -1.140625 3.945312 -1.28125 4.125 -1.5625 C 4.300781 -1.851562 4.390625 -2.285156 4.390625 -2.859375 C 4.390625 -3.421875 4.296875 -3.84375 4.109375 -4.125 C 3.929688 -4.40625 3.632812 -4.546875 3.21875 -4.546875 C 2.800781 -4.546875 2.5 -4.40625 2.3125 -4.125 C 2.132812 -3.84375 2.046875 -3.421875 2.046875 -2.859375 Z M 5.984375 -2.859375 C 5.984375 -1.929688 5.738281 -1.203125 5.25 -0.671875 C 4.757812 -0.148438 4.082031 0.109375 3.21875 0.109375 C 2.664062 0.109375 2.179688 -0.0078125 1.765625 -0.25 C 1.347656 -0.488281 1.023438 -0.832031 0.796875 -1.28125 C 0.578125 -1.726562 0.46875 -2.253906 0.46875 -2.859375 C 0.46875 -3.785156 0.707031 -4.503906 1.1875 -5.015625 C 1.675781 -5.535156 2.359375 -5.796875 3.234375 -5.796875 C 3.785156 -5.796875 4.269531 -5.675781 4.6875 -5.4375 C 5.101562 -5.195312 5.421875 -4.851562 5.640625 -4.40625 C 5.867188 -3.96875 5.984375 -3.453125 5.984375 -2.859375 Z M 5.984375 -2.859375 "/></g></g></g><g fill="#ffffff" fill-opacity="1"><g transform="translate(54.337427, 24.487764)"><g><path d="M 6.0625 0 L 4.515625 0 L 4.515625 -3.328125 C 4.515625 -3.734375 4.441406 -4.035156 4.296875 -4.234375 C 4.148438 -4.441406 3.914062 -4.546875 3.59375 -4.546875 C 3.164062 -4.546875 2.851562 -4.398438 2.65625 -4.109375 C 2.457031 -3.828125 2.359375 -3.347656 2.359375 -2.671875 L 2.359375 0 L 0.8125 0 L 0.8125 -5.6875 L 2 -5.6875 L 2.203125 -4.96875 L 2.296875 -4.96875 C 2.460938 -5.238281 2.695312 -5.441406 3 -5.578125 C 3.3125 -5.722656 3.660156 -5.796875 4.046875 -5.796875 C 4.703125 -5.796875 5.203125 -5.613281 5.546875 -5.25 C 5.890625 -4.894531 6.0625 -4.378906 6.0625 -3.703125 Z M 6.0625 0 "/></g></g></g><g fill="#ffffff" fill-opacity="1"><g transform="translate(61.185507, 24.487764)"><g><path d="M 3.171875 -4.6875 C 2.835938 -4.6875 2.578125 -4.582031 2.390625 -4.375 C 2.203125 -4.164062 2.097656 -3.867188 2.078125 -3.484375 L 4.25 -3.484375 C 4.25 -3.867188 4.148438 -4.164062 3.953125 -4.375 C 3.753906 -4.582031 3.492188 -4.6875 3.171875 -4.6875 Z M 3.390625 0.109375 C 2.472656 0.109375 1.753906 -0.144531 1.234375 -0.65625 C 0.722656 -1.164062 0.46875 -1.878906 0.46875 -2.796875 C 0.46875 -3.753906 0.703125 -4.492188 1.171875 -5.015625 C 1.648438 -5.535156 2.3125 -5.796875 3.15625 -5.796875 C 3.957031 -5.796875 4.582031 -5.566406 5.03125 -5.109375 C 5.476562 -4.648438 5.703125 -4.019531 5.703125 -3.21875 L 5.703125 -2.453125 L 2.046875 -2.453125 C 2.054688 -2.015625 2.179688 -1.671875 2.421875 -1.421875 C 2.671875 -1.171875 3.015625 -1.046875 3.453125 -1.046875 C 3.796875 -1.046875 4.117188 -1.082031 4.421875 -1.15625 C 4.734375 -1.226562 5.054688 -1.34375 5.390625 -1.5 L 5.390625 -0.296875 C 5.117188 -0.160156 4.828125 -0.0625 4.515625 0 C 4.210938 0.0703125 3.835938 0.109375 3.390625 0.109375 Z M 3.390625 0.109375 "/></g></g></g><g fill="#ffffff" fill-opacity="1"><g transform="translate(67.341656, 24.487764)"><g><path d="M 0 -5.6875 L 1.703125 -5.6875 L 2.765625 -2.484375 C 2.859375 -2.210938 2.925781 -1.882812 2.96875 -1.5 L 3 -1.5 C 3.03125 -1.851562 3.101562 -2.179688 3.21875 -2.484375 L 4.265625 -5.6875 L 5.921875 -5.6875 L 3.515625 0.734375 C 3.296875 1.328125 2.984375 1.769531 2.578125 2.0625 C 2.171875 2.351562 1.691406 2.5 1.140625 2.5 C 0.878906 2.5 0.617188 2.472656 0.359375 2.421875 L 0.359375 1.1875 C 0.546875 1.226562 0.75 1.25 0.96875 1.25 C 1.238281 1.25 1.476562 1.164062 1.6875 1 C 1.894531 0.832031 2.054688 0.578125 2.171875 0.234375 L 2.265625 -0.046875 Z M 0 -5.6875 "/></g></g></g></svg>